# xmcd
#
# Track frame offsets:
#	150
#	22690
#	43912
#	62505
#	85962
#	110855
#	127977
#	151695
#	169747
#	191867
#
# Disc length: 2741 seconds
#
# Revision: 0
# Processed by: cddbd v1.5.2PL0 Copyright (c) Steve Scherf et al.
# Submitted via: EasyCDDAExtractor 16.0.9.1
#
DISCID=7c0ab30a
DTITLE=Tô Chấn Phong - KH54: Giấc Mộng Cũ
DYEAR=1999
DGENRE=Pop
TTITLE0=Tô Chấn Phong - Vẫn Mãi Yêu Em
TTITLE1=Tô Chấn Phong - Dreams Are My Reality
TTITLE2=Tô Chấn Phong - Xin Quên Đi Tình Buồn
TTITLE3=Tô Chấn Phong and Khánh Hà - Nụ Tình Xanh
TTITLE4=Tô Chấn Phong - Tương Tư 4
TTITLE5=Tô Chấn Phong - Yêu Khi Trời Tối
TTITLE6=Tô Chấn Phong - Xin Cho Một Nụ Cười
TTITLE7=Tô Chấn Phong - Nhớ ©
TTITLE8=Tô Chấn Phong - Giấc Mộng Cũ ©
TTITLE9=Tô Chấn Phong - Leaving Our Love
EXTD=
EXTT0=
EXTT1=
EXTT2=
EXTT3=
EXTT4=
EXTT5=
EXTT6=
EXTT7=
EXTT8=
EXTT9=
PLAYORDER=
